<svg xmlns="http://www.w3.org/2000/svg" width="35.311" height="34.5" viewBox="0 0 35.311 34.5">
  <g id="microsoft_word" data-name="microsoft word" transform="translate(0.003)">
    <path id="Path_14" data-name="Path 14" d="M18.453,0h2.4V3.211c4.292.024,8.58-.045,12.868.024a1.381,1.381,0,0,1,1.549,1.532c.068,7.9-.016,15.808.04,23.71a4.674,4.674,0,0,1-.389,2.426,3.654,3.654,0,0,1-2.026.4c-4.014-.02-8.027-.012-12.041-.012V34.5H18.344C12.239,33.381,6.118,32.358,0,31.287q0-14.037,0-28.07C6.15,2.142,12.3,1.095,18.453,0Z" fill="#2a5699"/>
    <path id="Path_15" data-name="Path 15" d="M27.792,13.75H41.027V39.421H27.792V36.21H38.219V34.6H27.792v-2H38.219V31H27.792v-2H38.219V27.387H27.792v-2H38.219V23.777H27.792v-2H38.219V20.167H27.792v-2H38.219V16.56H27.792ZM15.227,20.837c.762-.044,1.524-.073,2.286-.116.533,2.707,1.079,5.411,1.657,8.106.453-2.784.955-5.559,1.44-8.339.8-.028,1.605-.073,2.4-.12-.906,3.887-1.7,7.808-2.691,11.668-.67.349-1.673-.016-2.467.04-.533-2.655-1.155-5.294-1.632-7.962-.469,2.591-1.079,5.159-1.616,7.735q-1.155-.06-2.318-.141c-.666-3.53-1.448-7.036-2.07-10.573.686-.032,1.376-.061,2.062-.085.413,2.554.882,5.1,1.241,7.657.566-2.623,1.144-5.246,1.705-7.87Z" transform="translate(-6.939 -9.338)" fill="#fff"/>
  </g>
</svg>
