<svg xmlns="http://www.w3.org/2000/svg" width="16" height="16" viewBox="0 0 16 16">
  <g id="Layer_2" data-name="Layer 2" transform="translate(-0.5 -0.5)">
    <g id="search" transform="translate(0.5 0.5)">
      <rect id="Rectangle_4" data-name="Rectangle 4" width="16" height="16" fill="#0bab0d" opacity="0"/>
      <path id="Path_1" data-name="Path 1" d="M14.561,13.634l-2.22-2.213a5.17,5.17,0,0,0,1.1-3.2,5.222,5.222,0,1,0-5.222,5.222,5.17,5.17,0,0,0,3.2-1.1l2.213,2.22a.655.655,0,1,0,.927-.927ZM4.306,8.222a3.917,3.917,0,1,1,3.917,3.917A3.917,3.917,0,0,1,4.306,8.222Z" transform="translate(-1.375 -1.375)" fill="#0bab0d"/>
    </g>
  </g>
</svg>
