<svg id="settings_icon" xmlns="http://www.w3.org/2000/svg" width="17" height="17" viewBox="0 0 17 17">
  <path id="Path_1502" data-name="Path 1502" d="M0,0H17V17H0Z" fill="none"/>
  <path id="Path_1503" data-name="Path 1503" d="M14.425,9.777a5.52,5.52,0,0,0,.05-.694,5.52,5.52,0,0,0-.05-.694L15.92,7.22A.357.357,0,0,0,16,6.767L14.588,4.316a.356.356,0,0,0-.432-.156l-1.764.708a5.175,5.175,0,0,0-1.2-.694L10.926,2.3a.345.345,0,0,0-.347-.3H7.746a.345.345,0,0,0-.347.3L7.129,4.175a5.442,5.442,0,0,0-1.2.694L4.169,4.16a.346.346,0,0,0-.432.156L2.32,6.767A.349.349,0,0,0,2.4,7.22L3.9,8.389a5.617,5.617,0,0,0-.05.694,5.617,5.617,0,0,0,.05.694L2.4,10.946a.357.357,0,0,0-.085.453L3.736,13.85a.356.356,0,0,0,.432.156L5.932,13.3a5.175,5.175,0,0,0,1.2.694L7.4,15.869a.345.345,0,0,0,.347.3h2.833a.345.345,0,0,0,.347-.3l.269-1.877a5.442,5.442,0,0,0,1.2-.694l1.764.708a.346.346,0,0,0,.432-.156L16,11.4a.357.357,0,0,0-.085-.453ZM9.162,11.562a2.479,2.479,0,1,1,2.479-2.479A2.482,2.482,0,0,1,9.162,11.562Z" transform="translate(-0.662 -0.583)" fill="#0bab0d"/>
</svg>
