<svg xmlns="http://www.w3.org/2000/svg" width="15.572" height="14.131" viewBox="0 0 15.572 14.131">
  <path id="Path_1545" data-name="Path 1545" d="M12.157,7.37l2,.47a.766.766,0,0,0,.708-.206c.055.014,1.048-1.758,1.1-1.825a.753.753,0,1,0-1.3-.765l-.245.416a7.1,7.1,0,0,0-12.585.609.753.753,0,0,0,1.372.622,5.6,5.6,0,0,1,9.8-.667L12.5,5.9A.753.753,0,0,0,12.157,7.37ZM1.6,10.486l-.99,1.681a.753.753,0,0,0,1.3.765l.245-.416a7.079,7.079,0,0,0,12.585-.608.753.753,0,0,0-1.372-.622,5.9,5.9,0,0,1-1.652,2.094,5.363,5.363,0,0,1-3.425,1.18,5.544,5.544,0,0,1-4.723-2.607l.509.12a.753.753,0,0,0,.345-1.466l-2-.47A.768.768,0,0,0,1.6,10.486Z" transform="translate(-0.5 -1.935)" fill="#5a5a5a"/>
</svg>
