<svg xmlns="http://www.w3.org/2000/svg" width="16.332" height="13.723" viewBox="0 0 16.332 13.723">
  <path id="Path_1542" data-name="Path 1542" d="M11.664,5.5C7.164,5.5,3.5,8.577,3.5,12.359a6.192,6.192,0,0,0,1.692,4.187A12.143,12.143,0,0,1,3.6,18.662a.307.307,0,0,0-.072.353.327.327,0,0,0,.3.2,7.564,7.564,0,0,0,3.841-.875,9.341,9.341,0,0,0,4,.875c4.5,0,8.165-3.077,8.165-6.859S16.165,5.5,11.664,5.5ZM9.052,13.012a.653.653,0,1,1,.653-.653A.653.653,0,0,1,9.052,13.012Zm2.613,0a.653.653,0,1,1,.653-.653A.653.653,0,0,1,11.664,13.012Zm2.613,0a.653.653,0,1,1,.653-.653A.653.653,0,0,1,14.277,13.012Z" transform="translate(-3.498 -5.5)" fill="#5a5a5a"/>
</svg>
